<?xml version="1.0" standalone="no"?>
<!DOCTYPE svg PUBLIC "-//W3C//DTD SVG 20010904//EN"
 "http://www.w3.org/TR/2001/REC-SVG-20010904/DTD/svg10.dtd">
<svg version="1.0" xmlns="http://www.w3.org/2000/svg"
 width="260.000000pt" height="260.000000pt" viewBox="0 0 260.000000 260.000000"
 preserveAspectRatio="xMidYMid meet">
<metadata>
Created by potrace 1.14, written by Peter Selinger 2001-2017
</metadata>
<g transform="translate(0.000000,260.000000) scale(0.100000,-0.100000)"
fill="#000000" stroke="none">
<path d="M0 1300 l0 -1300 1300 0 1300 0 0 1300 0 1300 -1300 0 -1300 0 0
-1300z m1960 663 c236 -4 355 -9 339 -15 -48 -19 -371 -68 -550 -84 -228 -21
-777 -25 -989 -6 -234 21 -596 85 -584 103 6 11 1260 12 1784 2z m294 -463
c-24 -24 -298 -53 -670 -71 -330 -15 -784 5 -1053 47 -51 8 -101 19 -110 24
-10 6 324 10 913 10 594 0 927 -3 920 -10z m-241 -387 c257 -3 465 -8 463 -11
-10 -9 -274 -41 -438 -53 -214 -15 -836 -15 -1058 0 -205 14 -523 49 -610 67
-57 12 12 13 555 9 341 -3 830 -8 1088 -12z m177 -412 l245 -6 -80 -13 c-365
-60 -1191 -68 -1655 -17 -74 9 -148 19 -165 23 -66 16 1156 26 1655 13z"/>
</g>
</svg>
